<mxfile host="app.diagrams.net" modified="2020-11-01T12:02:38.398Z" agent="5.0 (Windows NT 10.0; Win64; x64) AppleWebKit/537.36 (KHTML, like Gecko) Chrome/78.0.3904.97 Safari/537.36" etag="l9CtXrOqdla30LyXKEKd" version="13.8.8" type="github">
  <diagram id="JuQ9Ep4YEj0S0VAaOH0p" name="Page-1">
    <mxGraphModel dx="1806" dy="908" grid="1" gridSize="10" guides="1" tooltips="1" connect="1" arrows="1" fold="1" page="1" pageScale="1" pageWidth="850" pageHeight="1100" math="0" shadow="0">
      <root>
        <mxCell id="0" />
        <mxCell id="1" parent="0" />
        <mxCell id="ZotxuuK5Ct2Fdhp2b5MH-11" value="{abstract}&#xa;Command" style="swimlane;fontStyle=3;align=center;verticalAlign=top;childLayout=stackLayout;horizontal=1;startSize=40;horizontalStack=0;resizeParent=1;resizeParentMax=0;resizeLast=0;collapsible=1;marginBottom=0;" parent="1" vertex="1">
          <mxGeometry x="1100" y="830" width="400" height="210" as="geometry" />
        </mxCell>
        <mxCell id="ZotxuuK5Ct2Fdhp2b5MH-12" value="+line: String&#xa;+projects: ProjectList&#xa;+storage: Storage&#xa;+ui: Ui" style="text;strokeColor=none;fillColor=none;align=left;verticalAlign=top;spacingLeft=4;spacingRight=4;overflow=hidden;rotatable=0;points=[[0,0.5],[1,0.5]];portConstraint=eastwest;" parent="ZotxuuK5Ct2Fdhp2b5MH-11" vertex="1">
          <mxGeometry y="40" width="400" height="60" as="geometry" />
        </mxCell>
        <mxCell id="ZotxuuK5Ct2Fdhp2b5MH-13" value="" style="line;strokeWidth=1;fillColor=none;align=left;verticalAlign=middle;spacingTop=-1;spacingLeft=3;spacingRight=3;rotatable=0;labelPosition=right;points=[];portConstraint=eastwest;" parent="ZotxuuK5Ct2Fdhp2b5MH-11" vertex="1">
          <mxGeometry y="100" width="400" height="28" as="geometry" />
        </mxCell>
        <mxCell id="ZotxuuK5Ct2Fdhp2b5MH-14" value="#Command(line:String, projects:ProjectList, ui:Ui, storage:Storage)&#xa;#Command(line:String, projects:ProjectList, ui:Ui)&#xa;#Command(projects:ProjectList, ui:Ui)&#xa;#Command(ui:Ui)&#xa;+execute(){abstract}" style="text;strokeColor=none;fillColor=none;align=left;verticalAlign=top;spacingLeft=4;spacingRight=4;overflow=hidden;rotatable=0;points=[[0,0.5],[1,0.5]];portConstraint=eastwest;" parent="ZotxuuK5Ct2Fdhp2b5MH-11" vertex="1">
          <mxGeometry y="128" width="400" height="82" as="geometry" />
        </mxCell>
        <mxCell id="QECHB9NjO16_AEo7jIQd-87" style="edgeStyle=orthogonalEdgeStyle;rounded=0;orthogonalLoop=1;jettySize=auto;html=1;endArrow=block;endFill=0;fontColor=#000000;" parent="1" source="QECHB9NjO16_AEo7jIQd-1" target="ZotxuuK5Ct2Fdhp2b5MH-12" edge="1">
          <mxGeometry relative="1" as="geometry">
            <Array as="points">
              <mxPoint x="140" y="900" />
            </Array>
          </mxGeometry>
        </mxCell>
        <mxCell id="QECHB9NjO16_AEo7jIQd-1" value="Help" style="swimlane;fontStyle=1;align=center;verticalAlign=top;childLayout=stackLayout;horizontal=1;startSize=26;horizontalStack=0;resizeParent=1;resizeParentMax=0;resizeLast=0;collapsible=1;marginBottom=0;" parent="1" vertex="1">
          <mxGeometry x="60" y="1250" width="160" height="110" as="geometry" />
        </mxCell>
        <mxCell id="QECHB9NjO16_AEo7jIQd-2" value="+word: String" style="text;strokeColor=none;fillColor=none;align=left;verticalAlign=top;spacingLeft=4;spacingRight=4;overflow=hidden;rotatable=0;points=[[0,0.5],[1,0.5]];portConstraint=eastwest;" parent="QECHB9NjO16_AEo7jIQd-1" vertex="1">
          <mxGeometry y="26" width="160" height="26" as="geometry" />
        </mxCell>
        <mxCell id="QECHB9NjO16_AEo7jIQd-3" value="" style="line;strokeWidth=1;fillColor=none;align=left;verticalAlign=middle;spacingTop=-1;spacingLeft=3;spacingRight=3;rotatable=0;labelPosition=right;points=[];portConstraint=eastwest;" parent="QECHB9NjO16_AEo7jIQd-1" vertex="1">
          <mxGeometry y="52" width="160" height="8" as="geometry" />
        </mxCell>
        <mxCell id="QECHB9NjO16_AEo7jIQd-4" value="+Help(ui: Ui)&#xa;+execute()" style="text;strokeColor=none;fillColor=none;align=left;verticalAlign=top;spacingLeft=4;spacingRight=4;overflow=hidden;rotatable=0;points=[[0,0.5],[1,0.5]];portConstraint=eastwest;" parent="QECHB9NjO16_AEo7jIQd-1" vertex="1">
          <mxGeometry y="60" width="160" height="50" as="geometry" />
        </mxCell>
        <mxCell id="QECHB9NjO16_AEo7jIQd-95" style="edgeStyle=orthogonalEdgeStyle;rounded=0;orthogonalLoop=1;jettySize=auto;html=1;entryX=0.505;entryY=1.005;entryDx=0;entryDy=0;entryPerimeter=0;endArrow=block;endFill=0;fontColor=#000000;" parent="1" source="QECHB9NjO16_AEo7jIQd-5" target="ZotxuuK5Ct2Fdhp2b5MH-14" edge="1">
          <mxGeometry relative="1" as="geometry" />
        </mxCell>
        <mxCell id="QECHB9NjO16_AEo7jIQd-5" value="Add" style="swimlane;fontStyle=1;align=center;verticalAlign=top;childLayout=stackLayout;horizontal=1;startSize=26;horizontalStack=0;resizeParent=1;resizeParentMax=0;resizeLast=0;collapsible=1;marginBottom=0;" parent="1" vertex="1">
          <mxGeometry x="150" y="1085" width="350" height="110" as="geometry" />
        </mxCell>
        <mxCell id="QECHB9NjO16_AEo7jIQd-6" value="+word: String" style="text;strokeColor=none;fillColor=none;align=left;verticalAlign=top;spacingLeft=4;spacingRight=4;overflow=hidden;rotatable=0;points=[[0,0.5],[1,0.5]];portConstraint=eastwest;" parent="QECHB9NjO16_AEo7jIQd-5" vertex="1">
          <mxGeometry y="26" width="350" height="26" as="geometry" />
        </mxCell>
        <mxCell id="QECHB9NjO16_AEo7jIQd-7" value="" style="line;strokeWidth=1;fillColor=none;align=left;verticalAlign=middle;spacingTop=-1;spacingLeft=3;spacingRight=3;rotatable=0;labelPosition=right;points=[];portConstraint=eastwest;" parent="QECHB9NjO16_AEo7jIQd-5" vertex="1">
          <mxGeometry y="52" width="350" height="8" as="geometry" />
        </mxCell>
        <mxCell id="QECHB9NjO16_AEo7jIQd-8" value="+Add(line: String, projects: ProjectList, ui: Ui, storage: Storage)&#xa;+execute()" style="text;strokeColor=none;fillColor=none;align=left;verticalAlign=top;spacingLeft=4;spacingRight=4;overflow=hidden;rotatable=0;points=[[0,0.5],[1,0.5]];portConstraint=eastwest;" parent="QECHB9NjO16_AEo7jIQd-5" vertex="1">
          <mxGeometry y="60" width="350" height="50" as="geometry" />
        </mxCell>
        <mxCell id="QECHB9NjO16_AEo7jIQd-94" style="edgeStyle=orthogonalEdgeStyle;rounded=0;orthogonalLoop=1;jettySize=auto;html=1;entryX=0.589;entryY=1.005;entryDx=0;entryDy=0;entryPerimeter=0;endArrow=block;endFill=0;fontColor=#000000;" parent="1" source="QECHB9NjO16_AEo7jIQd-34" target="ZotxuuK5Ct2Fdhp2b5MH-14" edge="1">
          <mxGeometry relative="1" as="geometry" />
        </mxCell>
        <mxCell id="QECHB9NjO16_AEo7jIQd-34" value="Find" style="swimlane;fontStyle=1;align=center;verticalAlign=top;childLayout=stackLayout;horizontal=1;startSize=26;horizontalStack=0;resizeParent=1;resizeParentMax=0;resizeLast=0;collapsible=1;marginBottom=0;" parent="1" vertex="1">
          <mxGeometry x="1920" y="1090" width="360" height="110" as="geometry" />
        </mxCell>
        <mxCell id="QECHB9NjO16_AEo7jIQd-35" value="+word: String" style="text;strokeColor=none;fillColor=none;align=left;verticalAlign=top;spacingLeft=4;spacingRight=4;overflow=hidden;rotatable=0;points=[[0,0.5],[1,0.5]];portConstraint=eastwest;" parent="QECHB9NjO16_AEo7jIQd-34" vertex="1">
          <mxGeometry y="26" width="360" height="22" as="geometry" />
        </mxCell>
        <mxCell id="QECHB9NjO16_AEo7jIQd-36" value="" style="line;strokeWidth=1;fillColor=none;align=left;verticalAlign=middle;spacingTop=-1;spacingLeft=3;spacingRight=3;rotatable=0;labelPosition=right;points=[];portConstraint=eastwest;" parent="QECHB9NjO16_AEo7jIQd-34" vertex="1">
          <mxGeometry y="48" width="360" height="8" as="geometry" />
        </mxCell>
        <mxCell id="QECHB9NjO16_AEo7jIQd-37" value="+Find(line: String, projects: ProjectList, ui: Ui, storage: Storage)&#xa;+execute()&#xa;-findAndReplace()" style="text;strokeColor=none;fillColor=none;align=left;verticalAlign=top;spacingLeft=4;spacingRight=4;overflow=hidden;rotatable=0;points=[[0,0.5],[1,0.5]];portConstraint=eastwest;" parent="QECHB9NjO16_AEo7jIQd-34" vertex="1">
          <mxGeometry y="56" width="360" height="54" as="geometry" />
        </mxCell>
        <mxCell id="ZotxuuK5Ct2Fdhp2b5MH-23" value="Tracker" style="swimlane;fontStyle=1;align=center;verticalAlign=top;childLayout=stackLayout;horizontal=1;startSize=26;horizontalStack=0;resizeParent=1;resizeParentMax=0;resizeLast=0;collapsible=1;marginBottom=0;" parent="1" vertex="1">
          <mxGeometry x="970" y="180" width="260" height="200" as="geometry" />
        </mxCell>
        <mxCell id="ZotxuuK5Ct2Fdhp2b5MH-24" value="-ui: Ui&#xa;-parser: Parser&#xa;-in: Scanner&#xa;-projects: ProjectList&#xa;-storage: Storage" style="text;strokeColor=none;fillColor=none;align=left;verticalAlign=top;spacingLeft=4;spacingRight=4;overflow=hidden;rotatable=0;points=[[0,0.5],[1,0.5]];portConstraint=eastwest;" parent="ZotxuuK5Ct2Fdhp2b5MH-23" vertex="1">
          <mxGeometry y="26" width="260" height="84" as="geometry" />
        </mxCell>
        <mxCell id="ZotxuuK5Ct2Fdhp2b5MH-25" value="" style="line;strokeWidth=1;fillColor=none;align=left;verticalAlign=middle;spacingTop=-1;spacingLeft=3;spacingRight=3;rotatable=0;labelPosition=right;points=[];portConstraint=eastwest;" parent="ZotxuuK5Ct2Fdhp2b5MH-23" vertex="1">
          <mxGeometry y="110" width="260" height="8" as="geometry" />
        </mxCell>
        <mxCell id="ZotxuuK5Ct2Fdhp2b5MH-26" value="+main(args:String)&#xa;+run()&#xa;+readUserInput()&#xa;+isExit(command:Command): boolean" style="text;strokeColor=none;fillColor=none;align=left;verticalAlign=top;spacingLeft=4;spacingRight=4;overflow=hidden;rotatable=0;points=[[0,0.5],[1,0.5]];portConstraint=eastwest;" parent="ZotxuuK5Ct2Fdhp2b5MH-23" vertex="1">
          <mxGeometry y="118" width="260" height="82" as="geometry" />
        </mxCell>
        <mxCell id="QECHB9NjO16_AEo7jIQd-114" style="edgeStyle=orthogonalEdgeStyle;rounded=0;orthogonalLoop=1;jettySize=auto;html=1;entryX=0.003;entryY=0.098;entryDx=0;entryDy=0;entryPerimeter=0;endArrow=block;endFill=0;fontColor=#000000;" parent="1" source="ZotxuuK5Ct2Fdhp2b5MH-44" target="ZotxuuK5Ct2Fdhp2b5MH-26" edge="1">
          <mxGeometry relative="1" as="geometry" />
        </mxCell>
        <mxCell id="ZotxuuK5Ct2Fdhp2b5MH-44" value="Storage" style="swimlane;fontStyle=1;align=center;verticalAlign=top;childLayout=stackLayout;horizontal=1;startSize=26;horizontalStack=0;resizeParent=1;resizeParentMax=0;resizeLast=0;collapsible=1;marginBottom=0;" parent="1" vertex="1">
          <mxGeometry x="170" y="480" width="540" height="210" as="geometry" />
        </mxCell>
        <mxCell id="ZotxuuK5Ct2Fdhp2b5MH-45" value="-fileName: String" style="text;strokeColor=none;fillColor=none;align=left;verticalAlign=top;spacingLeft=4;spacingRight=4;overflow=hidden;rotatable=0;points=[[0,0.5],[1,0.5]];portConstraint=eastwest;" parent="ZotxuuK5Ct2Fdhp2b5MH-44" vertex="1">
          <mxGeometry y="26" width="540" height="26" as="geometry" />
        </mxCell>
        <mxCell id="ZotxuuK5Ct2Fdhp2b5MH-46" value="" style="line;strokeWidth=1;fillColor=none;align=left;verticalAlign=middle;spacingTop=-1;spacingLeft=3;spacingRight=3;rotatable=0;labelPosition=right;points=[];portConstraint=eastwest;" parent="ZotxuuK5Ct2Fdhp2b5MH-44" vertex="1">
          <mxGeometry y="52" width="540" height="8" as="geometry" />
        </mxCell>
        <mxCell id="ZotxuuK5Ct2Fdhp2b5MH-47" value="+Storage(fileName: String, projects: ProjectList, ui: Ui)&#xa;+updateStorage(projects: ProjectList)&#xa;+readStorage(projects: ProjectList, ui: Ui, storage: Storage)&#xa;-getLines(fileName: String): ArrayList&lt;String&gt;&#xa;+extractProjects(lines: ArrayList&lt;String&gt;, projects: ProjectList, ui: Ui, storage: Storage): ProjectList" style="text;strokeColor=none;fillColor=none;align=left;verticalAlign=top;spacingLeft=4;spacingRight=4;overflow=hidden;rotatable=0;points=[[0,0.5],[1,0.5]];portConstraint=eastwest;" parent="ZotxuuK5Ct2Fdhp2b5MH-44" vertex="1">
          <mxGeometry y="60" width="540" height="150" as="geometry" />
        </mxCell>
        <mxCell id="ZotxuuK5Ct2Fdhp2b5MH-39" value="Parser" style="swimlane;fontStyle=1;align=center;verticalAlign=top;childLayout=stackLayout;horizontal=1;startSize=26;horizontalStack=0;resizeParent=1;resizeParentMax=0;resizeLast=0;collapsible=1;marginBottom=0;" parent="1" vertex="1">
          <mxGeometry x="190" y="190" width="460" height="84" as="geometry" />
        </mxCell>
        <mxCell id="ZotxuuK5Ct2Fdhp2b5MH-41" value="" style="line;strokeWidth=1;fillColor=none;align=left;verticalAlign=middle;spacingTop=-1;spacingLeft=3;spacingRight=3;rotatable=0;labelPosition=right;points=[];portConstraint=eastwest;" parent="ZotxuuK5Ct2Fdhp2b5MH-39" vertex="1">
          <mxGeometry y="26" width="460" height="8" as="geometry" />
        </mxCell>
        <mxCell id="ZotxuuK5Ct2Fdhp2b5MH-42" value="+parseInput(line: String, projects: ProjectList, ui: Ui, storage: Storage): Command" style="text;strokeColor=none;fillColor=none;align=left;verticalAlign=top;spacingLeft=4;spacingRight=4;overflow=hidden;rotatable=0;points=[[0,0.5],[1,0.5]];portConstraint=eastwest;" parent="ZotxuuK5Ct2Fdhp2b5MH-39" vertex="1">
          <mxGeometry y="34" width="460" height="50" as="geometry" />
        </mxCell>
        <mxCell id="QECHB9NjO16_AEo7jIQd-22" value="Create" style="swimlane;fontStyle=1;align=center;verticalAlign=top;childLayout=stackLayout;horizontal=1;startSize=26;horizontalStack=0;resizeParent=1;resizeParentMax=0;resizeLast=0;collapsible=1;marginBottom=0;" parent="1" vertex="1">
          <mxGeometry x="1490" y="1085" width="370" height="100" as="geometry" />
        </mxCell>
        <mxCell id="QECHB9NjO16_AEo7jIQd-23" value="+word: String" style="text;strokeColor=none;fillColor=none;align=left;verticalAlign=top;spacingLeft=4;spacingRight=4;overflow=hidden;rotatable=0;points=[[0,0.5],[1,0.5]];portConstraint=eastwest;" parent="QECHB9NjO16_AEo7jIQd-22" vertex="1">
          <mxGeometry y="26" width="370" height="26" as="geometry" />
        </mxCell>
        <mxCell id="QECHB9NjO16_AEo7jIQd-24" value="" style="line;strokeWidth=1;fillColor=none;align=left;verticalAlign=middle;spacingTop=-1;spacingLeft=3;spacingRight=3;rotatable=0;labelPosition=right;points=[];portConstraint=eastwest;" parent="QECHB9NjO16_AEo7jIQd-22" vertex="1">
          <mxGeometry y="52" width="370" height="8" as="geometry" />
        </mxCell>
        <mxCell id="QECHB9NjO16_AEo7jIQd-25" value="+Create(line: String, projects: ProjectList, ui: Ui, storage: Storage)&#xa;+execute()" style="text;strokeColor=none;fillColor=none;align=left;verticalAlign=top;spacingLeft=4;spacingRight=4;overflow=hidden;rotatable=0;points=[[0,0.5],[1,0.5]];portConstraint=eastwest;" parent="QECHB9NjO16_AEo7jIQd-22" vertex="1">
          <mxGeometry y="60" width="370" height="40" as="geometry" />
        </mxCell>
        <mxCell id="QECHB9NjO16_AEo7jIQd-13" value="Edit" style="swimlane;fontStyle=1;align=center;verticalAlign=top;childLayout=stackLayout;horizontal=1;startSize=26;horizontalStack=0;resizeParent=1;resizeParentMax=0;resizeLast=0;collapsible=1;marginBottom=0;" parent="1" vertex="1">
          <mxGeometry x="710" y="1085" width="370" height="110" as="geometry" />
        </mxCell>
        <mxCell id="QECHB9NjO16_AEo7jIQd-14" value="+word: String" style="text;strokeColor=none;fillColor=none;align=left;verticalAlign=top;spacingLeft=4;spacingRight=4;overflow=hidden;rotatable=0;points=[[0,0.5],[1,0.5]];portConstraint=eastwest;" parent="QECHB9NjO16_AEo7jIQd-13" vertex="1">
          <mxGeometry y="26" width="370" height="26" as="geometry" />
        </mxCell>
        <mxCell id="QECHB9NjO16_AEo7jIQd-15" value="" style="line;strokeWidth=1;fillColor=none;align=left;verticalAlign=middle;spacingTop=-1;spacingLeft=3;spacingRight=3;rotatable=0;labelPosition=right;points=[];portConstraint=eastwest;" parent="QECHB9NjO16_AEo7jIQd-13" vertex="1">
          <mxGeometry y="52" width="370" height="8" as="geometry" />
        </mxCell>
        <mxCell id="QECHB9NjO16_AEo7jIQd-16" value="+Edit(line: String, projects: ProjectList, ui: Ui, storage: Storage)&#xa;+execute()" style="text;strokeColor=none;fillColor=none;align=left;verticalAlign=top;spacingLeft=4;spacingRight=4;overflow=hidden;rotatable=0;points=[[0,0.5],[1,0.5]];portConstraint=eastwest;" parent="QECHB9NjO16_AEo7jIQd-13" vertex="1">
          <mxGeometry y="60" width="370" height="50" as="geometry" />
        </mxCell>
        <mxCell id="QECHB9NjO16_AEo7jIQd-115" style="edgeStyle=orthogonalEdgeStyle;rounded=0;orthogonalLoop=1;jettySize=auto;html=1;entryX=0.518;entryY=0.997;entryDx=0;entryDy=0;entryPerimeter=0;endArrow=block;endFill=0;fontColor=#000000;" parent="1" source="ZotxuuK5Ct2Fdhp2b5MH-27" target="ZotxuuK5Ct2Fdhp2b5MH-26" edge="1">
          <mxGeometry relative="1" as="geometry" />
        </mxCell>
        <mxCell id="ZotxuuK5Ct2Fdhp2b5MH-27" value="Ui" style="swimlane;fontStyle=1;align=center;verticalAlign=top;childLayout=stackLayout;horizontal=1;startSize=26;horizontalStack=0;resizeParent=1;resizeParentMax=0;resizeLast=0;collapsible=1;marginBottom=0;" parent="1" vertex="1">
          <mxGeometry x="775" y="520" width="320" height="250" as="geometry" />
        </mxCell>
        <mxCell id="ZotxuuK5Ct2Fdhp2b5MH-29" value="" style="line;strokeWidth=1;fillColor=none;align=left;verticalAlign=middle;spacingTop=-1;spacingLeft=3;spacingRight=3;rotatable=0;labelPosition=right;points=[];portConstraint=eastwest;" parent="ZotxuuK5Ct2Fdhp2b5MH-27" vertex="1">
          <mxGeometry y="26" width="320" height="8" as="geometry" />
        </mxCell>
        <mxCell id="ZotxuuK5Ct2Fdhp2b5MH-30" value="+colorRed(input: int)&#xa;+colorGreen(input: int)&#xa;+printBorderline(input: int)&#xa;+printGreeting()&#xa;+printHelp()&#xa;+printFarewell()&#xa;+printProjectCreated(projects: ProjectList)&#xa;+printProjectRemoved(projects: ProjectList, index: int)&#xa;+printInvalidCommand()&#xa;+printNoFileFound()&#xa;+printFileExists()&#xa;+printAddMessage(projects: ProjectList)&#xa;+printEditMessage(projects: ProjectList)&#xa;+printProjectCompleted(index:int, ProjectList Projects)&#xa;" style="text;strokeColor=none;fillColor=none;align=left;verticalAlign=top;spacingLeft=4;spacingRight=4;overflow=hidden;rotatable=0;points=[[0,0.5],[1,0.5]];portConstraint=eastwest;" parent="ZotxuuK5Ct2Fdhp2b5MH-27" vertex="1">
          <mxGeometry y="34" width="320" height="216" as="geometry" />
        </mxCell>
        <mxCell id="QECHB9NjO16_AEo7jIQd-111" style="edgeStyle=orthogonalEdgeStyle;rounded=0;orthogonalLoop=1;jettySize=auto;html=1;entryX=0.553;entryY=1;entryDx=0;entryDy=0;entryPerimeter=0;endArrow=block;endFill=0;fontColor=#000000;" parent="1" source="QECHB9NjO16_AEo7jIQd-46" target="QECHB9NjO16_AEo7jIQd-110" edge="1">
          <mxGeometry relative="1" as="geometry" />
        </mxCell>
        <mxCell id="QECHB9NjO16_AEo7jIQd-46" value="TrackerException" style="swimlane;fontStyle=1;align=center;verticalAlign=top;childLayout=stackLayout;horizontal=1;startSize=26;horizontalStack=0;resizeParent=1;resizeParentMax=0;resizeLast=0;collapsible=1;marginBottom=0;" parent="1" vertex="1">
          <mxGeometry x="1550" y="140" width="240" height="64" as="geometry" />
        </mxCell>
        <mxCell id="QECHB9NjO16_AEo7jIQd-48" value="" style="line;strokeWidth=1;fillColor=none;align=left;verticalAlign=middle;spacingTop=-1;spacingLeft=3;spacingRight=3;rotatable=0;labelPosition=right;points=[];portConstraint=eastwest;" parent="QECHB9NjO16_AEo7jIQd-46" vertex="1">
          <mxGeometry y="26" width="240" height="8" as="geometry" />
        </mxCell>
        <mxCell id="QECHB9NjO16_AEo7jIQd-49" value="+ TrackerException(input:String)" style="text;strokeColor=none;fillColor=none;align=left;verticalAlign=top;spacingLeft=4;spacingRight=4;overflow=hidden;rotatable=0;points=[[0,0.5],[1,0.5]];portConstraint=eastwest;" parent="QECHB9NjO16_AEo7jIQd-46" vertex="1">
          <mxGeometry y="34" width="240" height="30" as="geometry" />
        </mxCell>
        <mxCell id="QECHB9NjO16_AEo7jIQd-116" style="edgeStyle=orthogonalEdgeStyle;rounded=0;orthogonalLoop=1;jettySize=auto;html=1;entryX=1;entryY=0.5;entryDx=0;entryDy=0;endArrow=block;endFill=0;fontColor=#000000;exitX=0.5;exitY=0;exitDx=0;exitDy=0;" parent="1" source="ZotxuuK5Ct2Fdhp2b5MH-35" target="ZotxuuK5Ct2Fdhp2b5MH-24" edge="1">
          <mxGeometry relative="1" as="geometry" />
        </mxCell>
        <mxCell id="QECHB9NjO16_AEo7jIQd-117" style="edgeStyle=orthogonalEdgeStyle;rounded=0;orthogonalLoop=1;jettySize=auto;html=1;endArrow=block;endFill=0;fontColor=#000000;" parent="1" source="QECHB9NjO16_AEo7jIQd-51" edge="1">
          <mxGeometry relative="1" as="geometry">
            <mxPoint x="1650" y="470" as="targetPoint" />
          </mxGeometry>
        </mxCell>
        <mxCell id="QECHB9NjO16_AEo7jIQd-30" value="Delete" style="swimlane;fontStyle=1;align=center;verticalAlign=top;childLayout=stackLayout;horizontal=1;startSize=26;horizontalStack=0;resizeParent=1;resizeParentMax=0;resizeLast=0;collapsible=1;marginBottom=0;" parent="1" vertex="1">
          <mxGeometry x="1720" y="1220" width="380" height="110" as="geometry" />
        </mxCell>
        <mxCell id="QECHB9NjO16_AEo7jIQd-31" value="+word: String" style="text;strokeColor=none;fillColor=none;align=left;verticalAlign=top;spacingLeft=4;spacingRight=4;overflow=hidden;rotatable=0;points=[[0,0.5],[1,0.5]];portConstraint=eastwest;" parent="QECHB9NjO16_AEo7jIQd-30" vertex="1">
          <mxGeometry y="26" width="380" height="22" as="geometry" />
        </mxCell>
        <mxCell id="QECHB9NjO16_AEo7jIQd-32" value="" style="line;strokeWidth=1;fillColor=none;align=left;verticalAlign=middle;spacingTop=-1;spacingLeft=3;spacingRight=3;rotatable=0;labelPosition=right;points=[];portConstraint=eastwest;" parent="QECHB9NjO16_AEo7jIQd-30" vertex="1">
          <mxGeometry y="48" width="380" height="8" as="geometry" />
        </mxCell>
        <mxCell id="QECHB9NjO16_AEo7jIQd-33" value="+Delete(line: String, projects: ProjectList, ui: Ui, storage: Storage)&#xa;+execute()" style="text;strokeColor=none;fillColor=none;align=left;verticalAlign=top;spacingLeft=4;spacingRight=4;overflow=hidden;rotatable=0;points=[[0,0.5],[1,0.5]];portConstraint=eastwest;" parent="QECHB9NjO16_AEo7jIQd-30" vertex="1">
          <mxGeometry y="56" width="380" height="54" as="geometry" />
        </mxCell>
        <mxCell id="QECHB9NjO16_AEo7jIQd-17" value="List" style="swimlane;fontStyle=1;align=center;verticalAlign=top;childLayout=stackLayout;horizontal=1;startSize=26;horizontalStack=0;resizeParent=1;resizeParentMax=0;resizeLast=0;collapsible=1;marginBottom=0;" parent="1" vertex="1">
          <mxGeometry x="1080" y="1230" width="190" height="100" as="geometry" />
        </mxCell>
        <mxCell id="QECHB9NjO16_AEo7jIQd-18" value="+word: String" style="text;strokeColor=none;fillColor=none;align=left;verticalAlign=top;spacingLeft=4;spacingRight=4;overflow=hidden;rotatable=0;points=[[0,0.5],[1,0.5]];portConstraint=eastwest;" parent="QECHB9NjO16_AEo7jIQd-17" vertex="1">
          <mxGeometry y="26" width="190" height="26" as="geometry" />
        </mxCell>
        <mxCell id="QECHB9NjO16_AEo7jIQd-19" value="" style="line;strokeWidth=1;fillColor=none;align=left;verticalAlign=middle;spacingTop=-1;spacingLeft=3;spacingRight=3;rotatable=0;labelPosition=right;points=[];portConstraint=eastwest;" parent="QECHB9NjO16_AEo7jIQd-17" vertex="1">
          <mxGeometry y="52" width="190" height="8" as="geometry" />
        </mxCell>
        <mxCell id="QECHB9NjO16_AEo7jIQd-20" value="+List(projects: ProjectList, ui: Ui)&#xa;+execute()" style="text;strokeColor=none;fillColor=none;align=left;verticalAlign=top;spacingLeft=4;spacingRight=4;overflow=hidden;rotatable=0;points=[[0,0.5],[1,0.5]];portConstraint=eastwest;" parent="QECHB9NjO16_AEo7jIQd-17" vertex="1">
          <mxGeometry y="60" width="190" height="40" as="geometry" />
        </mxCell>
        <mxCell id="QECHB9NjO16_AEo7jIQd-101" style="edgeStyle=orthogonalEdgeStyle;rounded=0;orthogonalLoop=1;jettySize=auto;html=1;endArrow=block;endFill=0;fontColor=#000000;" parent="1" source="QECHB9NjO16_AEo7jIQd-38" target="ZotxuuK5Ct2Fdhp2b5MH-13" edge="1">
          <mxGeometry relative="1" as="geometry" />
        </mxCell>
        <mxCell id="QECHB9NjO16_AEo7jIQd-38" value="Exit" style="swimlane;fontStyle=1;align=center;verticalAlign=top;childLayout=stackLayout;horizontal=1;startSize=26;horizontalStack=0;resizeParent=1;resizeParentMax=0;resizeLast=0;collapsible=1;marginBottom=0;" parent="1" vertex="1">
          <mxGeometry x="2300" y="1220" width="130" height="100" as="geometry" />
        </mxCell>
        <mxCell id="QECHB9NjO16_AEo7jIQd-39" value="+word: String" style="text;strokeColor=none;fillColor=none;align=left;verticalAlign=top;spacingLeft=4;spacingRight=4;overflow=hidden;rotatable=0;points=[[0,0.5],[1,0.5]];portConstraint=eastwest;" parent="QECHB9NjO16_AEo7jIQd-38" vertex="1">
          <mxGeometry y="26" width="130" height="26" as="geometry" />
        </mxCell>
        <mxCell id="QECHB9NjO16_AEo7jIQd-40" value="" style="line;strokeWidth=1;fillColor=none;align=left;verticalAlign=middle;spacingTop=-1;spacingLeft=3;spacingRight=3;rotatable=0;labelPosition=right;points=[];portConstraint=eastwest;" parent="QECHB9NjO16_AEo7jIQd-38" vertex="1">
          <mxGeometry y="52" width="130" height="8" as="geometry" />
        </mxCell>
        <mxCell id="QECHB9NjO16_AEo7jIQd-41" value="+Exit(ui: Ui)&#xa;+execute()" style="text;strokeColor=none;fillColor=none;align=left;verticalAlign=top;spacingLeft=4;spacingRight=4;overflow=hidden;rotatable=0;points=[[0,0.5],[1,0.5]];portConstraint=eastwest;" parent="QECHB9NjO16_AEo7jIQd-38" vertex="1">
          <mxGeometry y="60" width="130" height="40" as="geometry" />
        </mxCell>
        <mxCell id="QECHB9NjO16_AEo7jIQd-9" value="Invalid" style="swimlane;fontStyle=1;align=center;verticalAlign=top;childLayout=stackLayout;horizontal=1;startSize=26;horizontalStack=0;resizeParent=1;resizeParentMax=0;resizeLast=0;collapsible=1;marginBottom=0;" parent="1" vertex="1">
          <mxGeometry x="380" y="1225" width="160" height="70" as="geometry" />
        </mxCell>
        <mxCell id="QECHB9NjO16_AEo7jIQd-11" value="" style="line;strokeWidth=1;fillColor=none;align=left;verticalAlign=middle;spacingTop=-1;spacingLeft=3;spacingRight=3;rotatable=0;labelPosition=right;points=[];portConstraint=eastwest;" parent="QECHB9NjO16_AEo7jIQd-9" vertex="1">
          <mxGeometry y="26" width="160" height="8" as="geometry" />
        </mxCell>
        <mxCell id="QECHB9NjO16_AEo7jIQd-12" value="+Invalid(ui: Ui)&#xa;+execute()" style="text;strokeColor=none;fillColor=none;align=left;verticalAlign=top;spacingLeft=4;spacingRight=4;overflow=hidden;rotatable=0;points=[[0,0.5],[1,0.5]];portConstraint=eastwest;" parent="QECHB9NjO16_AEo7jIQd-9" vertex="1">
          <mxGeometry y="34" width="160" height="36" as="geometry" />
        </mxCell>
        <mxCell id="QECHB9NjO16_AEo7jIQd-118" style="edgeStyle=orthogonalEdgeStyle;rounded=0;orthogonalLoop=1;jettySize=auto;html=1;endArrow=block;endFill=0;fontColor=#000000;" parent="1" source="QECHB9NjO16_AEo7jIQd-59" edge="1">
          <mxGeometry relative="1" as="geometry">
            <mxPoint x="1660" y="650" as="targetPoint" />
          </mxGeometry>
        </mxCell>
        <mxCell id="QECHB9NjO16_AEo7jIQd-85" value="" style="endArrow=none;html=1;fontColor=#000000;" parent="1" edge="1">
          <mxGeometry width="50" height="50" relative="1" as="geometry">
            <mxPoint x="520" y="1225" as="sourcePoint" />
            <mxPoint x="520" y="1065" as="targetPoint" />
            <Array as="points" />
          </mxGeometry>
        </mxCell>
        <mxCell id="QECHB9NjO16_AEo7jIQd-89" style="edgeStyle=orthogonalEdgeStyle;rounded=0;orthogonalLoop=1;jettySize=auto;html=1;endArrow=block;endFill=0;fontColor=#000000;" parent="1" edge="1">
          <mxGeometry relative="1" as="geometry">
            <mxPoint x="1315" y="1040" as="targetPoint" />
            <mxPoint x="1270" y="1275" as="sourcePoint" />
          </mxGeometry>
        </mxCell>
        <mxCell id="QECHB9NjO16_AEo7jIQd-97" value="" style="endArrow=none;html=1;fontColor=#000000;" parent="1" edge="1">
          <mxGeometry width="50" height="50" relative="1" as="geometry">
            <mxPoint x="899" y="1085" as="sourcePoint" />
            <mxPoint x="899" y="1065" as="targetPoint" />
            <Array as="points">
              <mxPoint x="899" y="1075" />
            </Array>
          </mxGeometry>
        </mxCell>
        <mxCell id="QECHB9NjO16_AEo7jIQd-99" value="" style="endArrow=none;html=1;fontColor=#000000;" parent="1" edge="1">
          <mxGeometry width="50" height="50" relative="1" as="geometry">
            <mxPoint x="1690" y="1085" as="sourcePoint" />
            <mxPoint x="1690" y="1065" as="targetPoint" />
            <Array as="points">
              <mxPoint x="1690" y="1065" />
            </Array>
          </mxGeometry>
        </mxCell>
        <mxCell id="QECHB9NjO16_AEo7jIQd-100" value="" style="endArrow=none;html=1;fontColor=#000000;" parent="1" edge="1">
          <mxGeometry width="50" height="50" relative="1" as="geometry">
            <mxPoint x="1890" y="1225" as="sourcePoint" />
            <mxPoint x="1890" y="1065" as="targetPoint" />
          </mxGeometry>
        </mxCell>
        <mxCell id="QECHB9NjO16_AEo7jIQd-104" value="Extend" style="text;html=1;align=center;verticalAlign=middle;resizable=0;points=[];autosize=1;fontColor=#000000;" parent="1" vertex="1">
          <mxGeometry x="1550" y="920" width="50" height="20" as="geometry" />
        </mxCell>
        <mxCell id="QECHB9NjO16_AEo7jIQd-105" value="Extend" style="text;html=1;align=center;verticalAlign=middle;resizable=0;points=[];autosize=1;fontColor=#000000;" parent="1" vertex="1">
          <mxGeometry x="1310" y="1135" width="50" height="20" as="geometry" />
        </mxCell>
        <mxCell id="QECHB9NjO16_AEo7jIQd-106" value="Extend" style="text;html=1;align=center;verticalAlign=middle;resizable=0;points=[];autosize=1;fontColor=#000000;" parent="1" vertex="1">
          <mxGeometry x="1680" y="1040" width="50" height="20" as="geometry" />
        </mxCell>
        <mxCell id="QECHB9NjO16_AEo7jIQd-107" value="Extend" style="text;html=1;align=center;verticalAlign=middle;resizable=0;points=[];autosize=1;fontColor=#000000;" parent="1" vertex="1">
          <mxGeometry x="790" y="880" width="50" height="20" as="geometry" />
        </mxCell>
        <mxCell id="QECHB9NjO16_AEo7jIQd-109" value="Extend" style="text;html=1;align=center;verticalAlign=middle;resizable=0;points=[];autosize=1;fontColor=#000000;" parent="1" vertex="1">
          <mxGeometry x="910" y="1040" width="50" height="20" as="geometry" />
        </mxCell>
        <mxCell id="QECHB9NjO16_AEo7jIQd-110" value="Exception" style="whiteSpace=wrap;html=1;fontColor=#000000;" parent="1" vertex="1">
          <mxGeometry x="1565" y="60" width="190" height="30" as="geometry" />
        </mxCell>
        <mxCell id="QECHB9NjO16_AEo7jIQd-113" style="edgeStyle=orthogonalEdgeStyle;rounded=0;orthogonalLoop=1;jettySize=auto;html=1;endArrow=block;endFill=0;fontColor=#000000;entryX=0;entryY=0.5;entryDx=0;entryDy=0;" parent="1" source="ZotxuuK5Ct2Fdhp2b5MH-42" target="ZotxuuK5Ct2Fdhp2b5MH-24" edge="1">
          <mxGeometry relative="1" as="geometry">
            <mxPoint x="960" y="249" as="targetPoint" />
          </mxGeometry>
        </mxCell>
        <mxCell id="QECHB9NjO16_AEo7jIQd-119" value="extend" style="text;html=1;align=center;verticalAlign=middle;resizable=0;points=[];autosize=1;fontColor=#000000;" parent="1" vertex="1">
          <mxGeometry x="1660" y="660" width="50" height="20" as="geometry" />
        </mxCell>
        <mxCell id="QECHB9NjO16_AEo7jIQd-59" value="NewProject" style="swimlane;fontStyle=1;align=center;verticalAlign=top;childLayout=stackLayout;horizontal=1;startSize=26;horizontalStack=0;resizeParent=1;resizeParentMax=0;resizeLast=0;collapsible=1;marginBottom=0;fontColor=#000000;" parent="1" vertex="1">
          <mxGeometry x="1540" y="730" width="240" height="90" as="geometry" />
        </mxCell>
        <mxCell id="QECHB9NjO16_AEo7jIQd-61" value="" style="line;strokeWidth=1;fillColor=none;align=left;verticalAlign=middle;spacingTop=-1;spacingLeft=3;spacingRight=3;rotatable=0;labelPosition=right;points=[];portConstraint=eastwest;" parent="QECHB9NjO16_AEo7jIQd-59" vertex="1">
          <mxGeometry y="26" width="240" height="8" as="geometry" />
        </mxCell>
        <mxCell id="QECHB9NjO16_AEo7jIQd-62" value="+NewProject(description: String)&#xa;+toString()" style="text;strokeColor=none;fillColor=none;align=left;verticalAlign=top;spacingLeft=4;spacingRight=4;overflow=hidden;rotatable=0;points=[[0,0.5],[1,0.5]];portConstraint=eastwest;" parent="QECHB9NjO16_AEo7jIQd-59" vertex="1">
          <mxGeometry y="34" width="240" height="56" as="geometry" />
        </mxCell>
        <mxCell id="QECHB9NjO16_AEo7jIQd-51" value="Project" style="swimlane;fontStyle=1;align=center;verticalAlign=top;childLayout=stackLayout;horizontal=1;startSize=26;horizontalStack=0;resizeParent=1;resizeParentMax=0;resizeLast=0;collapsible=1;marginBottom=0;fontColor=#000000;" parent="1" vertex="1">
          <mxGeometry x="1570" y="520" width="160" height="130" as="geometry" />
        </mxCell>
        <mxCell id="QECHB9NjO16_AEo7jIQd-52" value="-description : String" style="text;strokeColor=none;fillColor=none;align=left;verticalAlign=top;spacingLeft=4;spacingRight=4;overflow=hidden;rotatable=0;points=[[0,0.5],[1,0.5]];portConstraint=eastwest;" parent="QECHB9NjO16_AEo7jIQd-51" vertex="1">
          <mxGeometry y="26" width="160" height="26" as="geometry" />
        </mxCell>
        <mxCell id="QECHB9NjO16_AEo7jIQd-53" value="" style="line;strokeWidth=1;fillColor=none;align=left;verticalAlign=middle;spacingTop=-1;spacingLeft=3;spacingRight=3;rotatable=0;labelPosition=right;points=[];portConstraint=eastwest;" parent="QECHB9NjO16_AEo7jIQd-51" vertex="1">
          <mxGeometry y="52" width="160" height="8" as="geometry" />
        </mxCell>
        <mxCell id="QECHB9NjO16_AEo7jIQd-54" value="+Project(description: String)&#xa;+getDescription()&#xa;+toString()" style="text;strokeColor=none;fillColor=none;align=left;verticalAlign=top;spacingLeft=4;spacingRight=4;overflow=hidden;rotatable=0;points=[[0,0.5],[1,0.5]];portConstraint=eastwest;" parent="QECHB9NjO16_AEo7jIQd-51" vertex="1">
          <mxGeometry y="60" width="160" height="70" as="geometry" />
        </mxCell>
        <mxCell id="ZotxuuK5Ct2Fdhp2b5MH-35" value="projectList" style="swimlane;fontStyle=1;align=center;verticalAlign=top;childLayout=stackLayout;horizontal=1;startSize=26;horizontalStack=0;resizeParent=1;resizeParentMax=0;resizeLast=0;collapsible=1;marginBottom=0;" parent="1" vertex="1">
          <mxGeometry x="1540" y="300" width="240" height="170" as="geometry" />
        </mxCell>
        <mxCell id="ZotxuuK5Ct2Fdhp2b5MH-36" value="-projects: ArrayList&lt;Project&gt;" style="text;strokeColor=none;fillColor=none;align=left;verticalAlign=top;spacingLeft=4;spacingRight=4;overflow=hidden;rotatable=0;points=[[0,0.5],[1,0.5]];portConstraint=eastwest;" parent="ZotxuuK5Ct2Fdhp2b5MH-35" vertex="1">
          <mxGeometry y="26" width="240" height="26" as="geometry" />
        </mxCell>
        <mxCell id="ZotxuuK5Ct2Fdhp2b5MH-37" value="" style="line;strokeWidth=1;fillColor=none;align=left;verticalAlign=middle;spacingTop=-1;spacingLeft=3;spacingRight=3;rotatable=0;labelPosition=right;points=[];portConstraint=eastwest;" parent="ZotxuuK5Ct2Fdhp2b5MH-35" vertex="1">
          <mxGeometry y="52" width="240" height="8" as="geometry" />
        </mxCell>
        <mxCell id="ZotxuuK5Ct2Fdhp2b5MH-38" value="+ProjectList()&#xa;+size(): int&#xa;+add(project: Project)&#xa;+set(index: int, project: Project)&#xa;+remove(index: int)&#xa;+get(index: int): Project" style="text;strokeColor=none;fillColor=none;align=left;verticalAlign=top;spacingLeft=4;spacingRight=4;overflow=hidden;rotatable=0;points=[[0,0.5],[1,0.5]];portConstraint=eastwest;" parent="ZotxuuK5Ct2Fdhp2b5MH-35" vertex="1">
          <mxGeometry y="60" width="240" height="110" as="geometry" />
        </mxCell>
        <mxCell id="OVs7Qe9BLMRRqrpmWrxC-1" value="Send" style="swimlane;fontStyle=1;align=center;verticalAlign=top;childLayout=stackLayout;horizontal=1;startSize=26;horizontalStack=0;resizeParent=1;resizeParentMax=0;resizeLast=0;collapsible=1;marginBottom=0;" parent="1" vertex="1">
          <mxGeometry x="1375" y="1225" width="190" height="100" as="geometry" />
        </mxCell>
        <mxCell id="OVs7Qe9BLMRRqrpmWrxC-2" value="+word: String" style="text;strokeColor=none;fillColor=none;align=left;verticalAlign=top;spacingLeft=4;spacingRight=4;overflow=hidden;rotatable=0;points=[[0,0.5],[1,0.5]];portConstraint=eastwest;" parent="OVs7Qe9BLMRRqrpmWrxC-1" vertex="1">
          <mxGeometry y="26" width="190" height="26" as="geometry" />
        </mxCell>
        <mxCell id="OVs7Qe9BLMRRqrpmWrxC-3" value="" style="line;strokeWidth=1;fillColor=none;align=left;verticalAlign=middle;spacingTop=-1;spacingLeft=3;spacingRight=3;rotatable=0;labelPosition=right;points=[];portConstraint=eastwest;" parent="OVs7Qe9BLMRRqrpmWrxC-1" vertex="1">
          <mxGeometry y="52" width="190" height="8" as="geometry" />
        </mxCell>
        <mxCell id="OVs7Qe9BLMRRqrpmWrxC-4" value="+Send(projects: ProjectList, ui: Ui)&#xa;+execute()" style="text;strokeColor=none;fillColor=none;align=left;verticalAlign=top;spacingLeft=4;spacingRight=4;overflow=hidden;rotatable=0;points=[[0,0.5],[1,0.5]];portConstraint=eastwest;" parent="OVs7Qe9BLMRRqrpmWrxC-1" vertex="1">
          <mxGeometry y="60" width="190" height="40" as="geometry" />
        </mxCell>
        <mxCell id="OVs7Qe9BLMRRqrpmWrxC-5" style="edgeStyle=orthogonalEdgeStyle;rounded=0;orthogonalLoop=1;jettySize=auto;html=1;endArrow=block;endFill=0;fontColor=#000000;" parent="1" edge="1">
          <mxGeometry relative="1" as="geometry">
            <mxPoint x="1325" y="1040" as="targetPoint" />
            <mxPoint x="1374" y="1274" as="sourcePoint" />
          </mxGeometry>
        </mxCell>
        <mxCell id="OVs7Qe9BLMRRqrpmWrxC-7" value="DateConverter" style="swimlane;fontStyle=1;align=center;verticalAlign=top;childLayout=stackLayout;horizontal=1;startSize=26;horizontalStack=0;resizeParent=1;resizeParentMax=0;resizeLast=0;collapsible=1;marginBottom=0;" parent="1" vertex="1">
          <mxGeometry x="1840" y="300" width="300" height="240" as="geometry" />
        </mxCell>
        <mxCell id="OVs7Qe9BLMRRqrpmWrxC-8" value="- startDate String&#xa;- dueDate String&#xa;- dateDiff String&#xa;- dysLeft String" style="text;strokeColor=none;fillColor=none;align=left;verticalAlign=top;spacingLeft=4;spacingRight=4;overflow=hidden;rotatable=0;points=[[0,0.5],[1,0.5]];portConstraint=eastwest;" parent="OVs7Qe9BLMRRqrpmWrxC-7" vertex="1">
          <mxGeometry y="26" width="300" height="74" as="geometry" />
        </mxCell>
        <mxCell id="OVs7Qe9BLMRRqrpmWrxC-9" value="" style="line;strokeWidth=1;fillColor=none;align=left;verticalAlign=middle;spacingTop=-1;spacingLeft=3;spacingRight=3;rotatable=0;labelPosition=right;points=[];portConstraint=eastwest;" parent="OVs7Qe9BLMRRqrpmWrxC-7" vertex="1">
          <mxGeometry y="100" width="300" height="20" as="geometry" />
        </mxCell>
        <mxCell id="OVs7Qe9BLMRRqrpmWrxC-10" value="+DateConverter(String startDate, String dueDate)&#xa;+DateConverter(String dueDate)&#xa;+setDateDiff()&#xa;+setDaysLeft()&#xa;+dateConverter(String dateInString)&#xa;+calculateDateDiff(String startDate, String endDate)&#xa;-getDateDiff()&#xa;-getDaysLeft()" style="text;strokeColor=none;fillColor=none;align=left;verticalAlign=top;spacingLeft=4;spacingRight=4;overflow=hidden;rotatable=0;points=[[0,0.5],[1,0.5]];portConstraint=eastwest;" parent="OVs7Qe9BLMRRqrpmWrxC-7" vertex="1">
          <mxGeometry y="120" width="300" height="120" as="geometry" />
        </mxCell>
        <mxCell id="OVs7Qe9BLMRRqrpmWrxC-18" value="SendEmail" style="swimlane;fontStyle=1;align=center;verticalAlign=top;childLayout=stackLayout;horizontal=1;startSize=26;horizontalStack=0;resizeParent=1;resizeParentMax=0;resizeLast=0;collapsible=1;marginBottom=0;" parent="1" vertex="1">
          <mxGeometry x="1180" y="530" width="250" height="138" as="geometry" />
        </mxCell>
        <mxCell id="OVs7Qe9BLMRRqrpmWrxC-19" value="+ receiver: String&#xa;+ messages : String" style="text;strokeColor=none;fillColor=none;align=left;verticalAlign=top;spacingLeft=4;spacingRight=4;overflow=hidden;rotatable=0;points=[[0,0.5],[1,0.5]];portConstraint=eastwest;" parent="OVs7Qe9BLMRRqrpmWrxC-18" vertex="1">
          <mxGeometry y="26" width="250" height="44" as="geometry" />
        </mxCell>
        <mxCell id="OVs7Qe9BLMRRqrpmWrxC-20" value="" style="line;strokeWidth=1;fillColor=none;align=left;verticalAlign=middle;spacingTop=-1;spacingLeft=3;spacingRight=3;rotatable=0;labelPosition=right;points=[];portConstraint=eastwest;" parent="OVs7Qe9BLMRRqrpmWrxC-18" vertex="1">
          <mxGeometry y="70" width="250" height="8" as="geometry" />
        </mxCell>
        <mxCell id="OVs7Qe9BLMRRqrpmWrxC-21" value="+sendEmail()&#xa;" style="text;strokeColor=none;fillColor=none;align=left;verticalAlign=top;spacingLeft=4;spacingRight=4;overflow=hidden;rotatable=0;points=[[0,0.5],[1,0.5]];portConstraint=eastwest;" parent="OVs7Qe9BLMRRqrpmWrxC-18" vertex="1">
          <mxGeometry y="78" width="250" height="60" as="geometry" />
        </mxCell>
        <mxCell id="OVs7Qe9BLMRRqrpmWrxC-22" style="edgeStyle=orthogonalEdgeStyle;rounded=0;orthogonalLoop=1;jettySize=auto;html=1;entryX=0.685;entryY=0.998;entryDx=0;entryDy=0;entryPerimeter=0;endArrow=block;endFill=0;fontColor=#000000;exitX=0.5;exitY=0;exitDx=0;exitDy=0;" parent="1" source="OVs7Qe9BLMRRqrpmWrxC-18" target="ZotxuuK5Ct2Fdhp2b5MH-26" edge="1">
          <mxGeometry relative="1" as="geometry">
            <mxPoint x="945" y="540" as="sourcePoint" />
            <mxPoint x="1119.8799999999997" y="390" as="targetPoint" />
          </mxGeometry>
        </mxCell>
        <mxCell id="_Dt7mTBSmzeAj84fwamO-1" style="edgeStyle=orthogonalEdgeStyle;rounded=0;orthogonalLoop=1;jettySize=auto;html=1;entryX=0.913;entryY=0.003;entryDx=0;entryDy=0;entryPerimeter=0;endArrow=block;endFill=0;fontColor=#000000;exitX=0;exitY=0.5;exitDx=0;exitDy=0;" parent="1" source="QECHB9NjO16_AEo7jIQd-110" target="ZotxuuK5Ct2Fdhp2b5MH-23" edge="1">
          <mxGeometry relative="1" as="geometry">
            <mxPoint x="1659.22" y="108.98000000000002" as="sourcePoint" />
            <mxPoint x="899.9999999999998" y="41.01999999999998" as="targetPoint" />
          </mxGeometry>
        </mxCell>
        <mxCell id="_Dt7mTBSmzeAj84fwamO-2" style="edgeStyle=orthogonalEdgeStyle;rounded=0;orthogonalLoop=1;jettySize=auto;html=1;entryX=0.604;entryY=1;entryDx=0;entryDy=0;entryPerimeter=0;endArrow=block;endFill=0;fontColor=#000000;exitX=0.5;exitY=0;exitDx=0;exitDy=0;" parent="1" source="ZotxuuK5Ct2Fdhp2b5MH-11" target="ZotxuuK5Ct2Fdhp2b5MH-26" edge="1">
          <mxGeometry relative="1" as="geometry">
            <mxPoint x="1296.9" y="760.16" as="sourcePoint" />
            <mxPoint x="1140.0000000000005" y="609.996" as="targetPoint" />
            <Array as="points">
              <mxPoint x="1300" y="710" />
              <mxPoint x="1127" y="710" />
            </Array>
          </mxGeometry>
        </mxCell>
        <mxCell id="UFJXbDYz8W7_IxYbsByH-1" value="" style="endArrow=block;endSize=16;endFill=0;html=1;" parent="1" edge="1">
          <mxGeometry width="160" relative="1" as="geometry">
            <mxPoint x="1840" y="1080" as="sourcePoint" />
            <mxPoint x="1840" y="540" as="targetPoint" />
            <Array as="points">
              <mxPoint x="1840" y="750" />
            </Array>
          </mxGeometry>
        </mxCell>
        <mxCell id="UFJXbDYz8W7_IxYbsByH-2" value="" style="endArrow=block;endSize=16;endFill=0;html=1;" parent="1" edge="1">
          <mxGeometry width="160" relative="1" as="geometry">
            <mxPoint x="710" y="490" as="sourcePoint" />
            <mxPoint x="1840" y="490" as="targetPoint" />
          </mxGeometry>
        </mxCell>
        <mxCell id="UFJXbDYz8W7_IxYbsByH-3" value="" style="endArrow=block;endSize=16;endFill=0;html=1;exitX=1.004;exitY=0.67;exitDx=0;exitDy=0;exitPerimeter=0;" parent="1" source="ZotxuuK5Ct2Fdhp2b5MH-30" edge="1">
          <mxGeometry width="160" relative="1" as="geometry">
            <mxPoint x="1095" y="740" as="sourcePoint" />
            <mxPoint x="2000" y="550" as="targetPoint" />
            <Array as="points">
              <mxPoint x="1590" y="695" />
              <mxPoint x="2000" y="695" />
            </Array>
          </mxGeometry>
        </mxCell>
        <mxCell id="zT0zHDnySLoEEZqEYvQw-1" value="Complete" style="swimlane;fontStyle=1;align=center;verticalAlign=top;childLayout=stackLayout;horizontal=1;startSize=26;horizontalStack=0;resizeParent=1;resizeParentMax=0;resizeLast=0;collapsible=1;marginBottom=0;" vertex="1" parent="1">
          <mxGeometry x="560" y="1225" width="380" height="110" as="geometry" />
        </mxCell>
        <mxCell id="zT0zHDnySLoEEZqEYvQw-2" value="+word: String" style="text;strokeColor=none;fillColor=none;align=left;verticalAlign=top;spacingLeft=4;spacingRight=4;overflow=hidden;rotatable=0;points=[[0,0.5],[1,0.5]];portConstraint=eastwest;" vertex="1" parent="zT0zHDnySLoEEZqEYvQw-1">
          <mxGeometry y="26" width="380" height="26" as="geometry" />
        </mxCell>
        <mxCell id="zT0zHDnySLoEEZqEYvQw-3" value="" style="line;strokeWidth=1;fillColor=none;align=left;verticalAlign=middle;spacingTop=-1;spacingLeft=3;spacingRight=3;rotatable=0;labelPosition=right;points=[];portConstraint=eastwest;" vertex="1" parent="zT0zHDnySLoEEZqEYvQw-1">
          <mxGeometry y="52" width="380" height="8" as="geometry" />
        </mxCell>
        <mxCell id="zT0zHDnySLoEEZqEYvQw-4" value="+Edit(line: String, projects: ProjectList, ui: Ui, storage: Storage)&#xa;+execute()" style="text;strokeColor=none;fillColor=none;align=left;verticalAlign=top;spacingLeft=4;spacingRight=4;overflow=hidden;rotatable=0;points=[[0,0.5],[1,0.5]];portConstraint=eastwest;" vertex="1" parent="zT0zHDnySLoEEZqEYvQw-1">
          <mxGeometry y="60" width="380" height="50" as="geometry" />
        </mxCell>
        <mxCell id="zT0zHDnySLoEEZqEYvQw-5" value="" style="endArrow=none;html=1;fontColor=#000000;" edge="1" parent="1">
          <mxGeometry width="50" height="50" relative="1" as="geometry">
            <mxPoint x="660" y="1225" as="sourcePoint" />
            <mxPoint x="660" y="1065" as="targetPoint" />
            <Array as="points" />
          </mxGeometry>
        </mxCell>
        <mxCell id="zT0zHDnySLoEEZqEYvQw-6" value="Extend" style="text;html=1;align=center;verticalAlign=middle;resizable=0;points=[];autosize=1;fontColor=#000000;" vertex="1" parent="1">
          <mxGeometry x="610" y="1150" width="50" height="20" as="geometry" />
        </mxCell>
        <mxCell id="zT0zHDnySLoEEZqEYvQw-7" value="Extend" style="text;html=1;align=center;verticalAlign=middle;resizable=0;points=[];autosize=1;fontColor=#000000;" vertex="1" parent="1">
          <mxGeometry x="520" y="1125" width="50" height="20" as="geometry" />
        </mxCell>
      </root>
    </mxGraphModel>
  </diagram>
</mxfile>
